<?xml version="1.0" encoding="UTF-8"?>
<svg version="1.1" xmlns="http://www.w3.org/2000/svg" width="96" height="96">
<path d="M0 0 C1.03717667 -0.0098568 1.03717667 -0.0098568 2.0953064 -0.01991272 C4.3828747 -0.03961702 6.67037738 -0.05130273 8.95800781 -0.0612793 C10.13229214 -0.06739259 10.13229214 -0.06739259 11.33029938 -0.07362938 C15.4750797 -0.09447932 19.61982704 -0.10878487 23.76464844 -0.11816406 C28.03625018 -0.12921778 32.30732947 -0.1636083 36.5787468 -0.20333576 C39.87140847 -0.22953832 43.16394643 -0.23785916 46.45670319 -0.24144554 C48.03070854 -0.24630324 49.60470868 -0.25789396 51.17861176 -0.27648354 C53.38771912 -0.30095083 55.59548485 -0.2998969 57.8046875 -0.29296875 C59.05916687 -0.29883499 60.31364624 -0.30470123 61.60614014 -0.31074524 C67.0678549 0.4386054 70.75143763 2.65601504 74.53613281 6.73950195 C77.29177335 10.87296276 77.2998425 14.14853997 77.33813477 19.01586914 C77.34470596 19.70732025 77.35127716 20.39877136 77.35804749 21.11117554 C77.37775179 23.39874384 77.3894375 25.68624652 77.39941406 27.97387695 C77.40348959 28.75673317 77.40756512 29.53958939 77.41176414 30.34616852 C77.43261409 34.49094884 77.44691963 38.63569618 77.45629883 42.78051758 C77.46735254 47.05211932 77.50174307 51.32319861 77.54147053 55.59461594 C77.56767308 58.88727761 77.57599393 62.17981557 77.57958031 65.47257233 C77.58443801 67.04657769 77.59602872 68.62057782 77.6146183 70.1944809 C77.6390856 72.40358826 77.63803166 74.61135399 77.63110352 76.82055664 C77.63696976 78.07503601 77.642836 79.32951538 77.64888 80.62200928 C76.89952936 86.08372404 74.68211972 89.76730677 70.59863281 93.55200195 C66.465172 96.30764249 63.18959479 96.31571164 58.32226562 96.35400391 C57.63081451 96.3605751 56.9393634 96.3671463 56.22695923 96.37391663 C53.93939093 96.39362093 51.65188824 96.40530664 49.36425781 96.4152832 C48.5814016 96.41935873 47.79854538 96.42343426 46.99196625 96.42763329 C42.84718592 96.44848323 38.70243859 96.46278877 34.55761719 96.47216797 C30.28601544 96.48322168 26.01493615 96.51761221 21.74351883 96.55733967 C18.45085715 96.58354222 15.1583192 96.59186307 11.86556244 96.59544945 C10.29155708 96.60030715 8.71755695 96.61189786 7.14365387 96.63048744 C4.9345465 96.65495474 2.72678077 96.6539008 0.51757812 96.64697266 C-1.36414093 96.65577202 -1.36414093 96.65577202 -3.28387451 96.66474915 C-8.74558927 95.9153985 -12.429172 93.69798886 -16.21386719 89.61450195 C-18.96950773 85.48104114 -18.97757687 82.20546393 -19.01586914 77.33813477 C-19.02244034 76.64668365 -19.02901154 75.95523254 -19.03578186 75.24282837 C-19.05548616 72.95526007 -19.06717187 70.66775738 -19.07714844 68.38012695 C-19.08122396 67.59727074 -19.08529949 66.81441452 -19.08949852 66.00783539 C-19.11034846 61.86305506 -19.12465401 57.71830773 -19.1340332 53.57348633 C-19.14508692 49.30188458 -19.17947744 45.0308053 -19.2192049 40.75938797 C-19.24540746 37.46672629 -19.25372831 34.17418834 -19.25731468 30.88143158 C-19.26217238 29.30742622 -19.2737631 27.73342609 -19.29235268 26.15952301 C-19.31681997 23.95041564 -19.31576604 21.74264991 -19.30883789 19.53344727 C-19.31470413 18.2789679 -19.32057037 17.02448853 -19.32661438 15.73199463 C-18.57726374 10.27027987 -16.3598541 6.58669714 -12.27636719 2.80200195 C-8.14290638 0.04636141 -4.86732917 0.03829227 0 0 Z " fill="#21D2ED" transform="translate(18.8388671875,-0.177001953125)"/>
<path d="M0 0 C2.05078125 0.03255208 4.1015625 0.06510417 6.15234375 0.09765625 C10.11735438 13.329588 13.51764695 26.53671683 16.15234375 40.09765625 C13.84234375 40.09765625 11.53234375 40.09765625 9.15234375 40.09765625 C7.83607683 36.47792223 7.15234375 34.00198494 7.15234375 30.09765625 C3.52234375 30.09765625 -0.10765625 30.09765625 -3.84765625 30.09765625 C-3.99203125 31.56203125 -4.13640625 33.02640625 -4.28515625 34.53515625 C-4.72265625 38.97265625 -4.72265625 38.97265625 -5.84765625 40.09765625 C-7.84723989 40.13846408 -9.84810879 40.14019981 -11.84765625 40.09765625 C-11.30045779 32.36847806 -9.44352058 25.10715759 -7.40917969 17.65625 C-6.84181418 15.57623873 -6.285443 13.49350424 -5.73046875 11.41015625 C-2.6975443 0.14257634 -2.6975443 0.14257634 0 0 Z " fill="#0B1725" transform="translate(45.84765625,25.90234375)"/>
<path d="M0 0 C2.29946417 3.44919626 2.80769035 6.1381022 3.625 10.1875 C3.88539062 11.45980469 4.14578125 12.73210938 4.4140625 14.04296875 C4.60742188 15.01878906 4.80078125 15.99460937 5 17 C2.36 17 -0.28 17 -3 17 C-2.36934845 11.2190275 -1.34844868 5.6556294 0 0 Z " fill="#20C9E3" transform="translate(47,34)"/>
</svg>
